<?xml version="1.0" encoding="UTF-8" standalone="no"?>
<!DOCTYPE svg PUBLIC "-//W3C//DTD SVG 1.1//EN" "http://www.w3.org/Graphics/SVG/1.1/DTD/svg11.dtd">
<svg xmlns="http://www.w3.org/2000/svg" version="1.1" viewBox="0.00 0.00 250.00 99.00">
<g stroke-width="2.00" fill="none" stroke-linecap="butt">
<path stroke="#66552f" vector-effect="non-scaling-stroke" d="
  M 162.56 59.31
  L 155.95 59.10"
/>
<path stroke="#92928e" vector-effect="non-scaling-stroke" d="
  M 155.95 59.10
  L 155.89 51.04"
/>
<path stroke="#66552f" vector-effect="non-scaling-stroke" d="
  M 155.89 51.04
  Q 156.65 47.74 155.92 44.50"
/>
<path stroke="#92928e" vector-effect="non-scaling-stroke" d="
  M 155.92 44.50
  L 155.97 35.99"
/>
<path stroke="#66552f" vector-effect="non-scaling-stroke" d="
  M 155.97 35.99
  L 156.14 29.33"
/>
<path stroke="#92928e" vector-effect="non-scaling-stroke" d="
  M 156.14 29.33
  L 134.21 16.87
  Q 133.71 16.59 133.71 17.16
  L 133.71 29.44"
/>
<path stroke="#66552f" vector-effect="non-scaling-stroke" d="
  M 133.71 29.44
  L 133.64 35.83"
/>
<path stroke="#92928e" vector-effect="non-scaling-stroke" d="
  M 133.64 35.83
  L 133.68 44.60"
/>
<path stroke="#66552f" vector-effect="non-scaling-stroke" d="
  M 133.68 44.60
  L 133.69 51.04"
/>
<path stroke="#92928e" vector-effect="non-scaling-stroke" d="
  M 133.69 51.04
  L 133.69 59.08"
/>
<path stroke="#66552f" vector-effect="non-scaling-stroke" d="
  M 133.69 59.08
  L 127.11 59.07"
/>
<path stroke="#d3c2a0" vector-effect="non-scaling-stroke" d="
  M 155.92 44.50
  L 133.68 44.60"
/>
<path stroke="#d3c2a0" vector-effect="non-scaling-stroke" d="
  M 155.95 59.10
  L 133.69 59.08"
/>
<path stroke="#d3c2a0" vector-effect="non-scaling-stroke" d="
  M 156.14 29.33
  L 133.71 29.44"
/>
<path stroke="#d3c2a0" vector-effect="non-scaling-stroke" d="
  M 155.97 35.99
  L 133.64 35.83"
/>
<path stroke="#d3c2a0" vector-effect="non-scaling-stroke" d="
  M 155.89 51.04
  L 133.69 51.04"
/>
<path stroke="#66552f" vector-effect="non-scaling-stroke" d="
  M 122.15 59.39
  L 115.67 59.10"
/>
<path stroke="#92928e" vector-effect="non-scaling-stroke" d="
  M 115.67 59.10
  L 115.58 51.10"
/>
<path stroke="#66552f" vector-effect="non-scaling-stroke" d="
  M 115.58 51.10
  L 115.67 44.48"
/>
<path stroke="#92928e" vector-effect="non-scaling-stroke" d="
  M 115.67 44.48
  L 115.66 36.18"
/>
<path stroke="#66552f" vector-effect="non-scaling-stroke" d="
  M 115.66 36.18
  L 115.67 29.41"
/>
<path stroke="#92928e" vector-effect="non-scaling-stroke" d="
  M 115.67 29.41
  L 115.72 17.17
  A 0.40 0.39 -14.8 0 0 115.13 16.83
  L 93.25 29.39"
/>
<path stroke="#66552f" vector-effect="non-scaling-stroke" d="
  M 93.25 29.39
  L 93.31 35.98"
/>
<path stroke="#92928e" vector-effect="non-scaling-stroke" d="
  M 93.31 35.98
  L 93.36 44.58"
/>
<path stroke="#66552f" vector-effect="non-scaling-stroke" d="
  M 93.36 44.58
  L 93.35 51.14"
/>
<path stroke="#92928e" vector-effect="non-scaling-stroke" d="
  M 93.35 51.14
  L 93.30 59.09"
/>
<path stroke="#66552f" vector-effect="non-scaling-stroke" d="
  M 93.30 59.09
  L 86.84 59.20"
/>
<path stroke="#d3c2a0" vector-effect="non-scaling-stroke" d="
  M 115.67 29.41
  L 93.25 29.39"
/>
<path stroke="#d3c2a0" vector-effect="non-scaling-stroke" d="
  M 115.67 44.48
  L 93.36 44.58"
/>
<path stroke="#d3c2a0" vector-effect="non-scaling-stroke" d="
  M 115.67 59.10
  L 93.30 59.09"
/>
<path stroke="#d3c2a0" vector-effect="non-scaling-stroke" d="
  M 115.66 36.18
  L 93.31 35.98"
/>
<path stroke="#d3c2a0" vector-effect="non-scaling-stroke" d="
  M 115.58 51.10
  L 93.35 51.14"
/>
<path stroke="#92928e" vector-effect="non-scaling-stroke" d="
  M 5.08 82.00
  L 6.43 76.11
  Q 6.60 75.38 5.93 75.72
  Q 2.61 77.44 3.12 82.09"
/>
<path stroke="#1b1a13" vector-effect="non-scaling-stroke" d="
  M 34.59 85.92
  Q 34.99 86.09 35.36 86.85"
/>
<path stroke="#92928e" vector-effect="non-scaling-stroke" d="
  M 51.16 77.02
  Q 52.56 76.19 54.19 76.32
  Q 54.76 76.37 54.64 76.93
  L 53.81 81.00
  Q 53.69 81.56 54.25 81.43
  C 59.09 80.36 58.83 73.14 51.56 75.31"
/>
<path stroke="#1b1a13" vector-effect="non-scaling-stroke" d="
  M 51.56 75.31
  Q 51.70 74.81 51.57 74.40"
/>
<path stroke="#888884" vector-effect="non-scaling-stroke" d="
  M 51.56 75.31
  Q 49.82 76.10 50.23 76.90"
/>
<path stroke="#888884" vector-effect="non-scaling-stroke" d="
  M 83.87 86.01
  Q 83.16 87.11 83.24 88.54
  Q 83.28 89.40 83.83 89.74
  Q 84.45 90.13 85.35 89.86"
/>
<path stroke="#888884" vector-effect="non-scaling-stroke" d="
  M 85.35 89.86
  Q 85.91 88.26 85.59 86.11"
/>
<path stroke="#92928e" vector-effect="non-scaling-stroke" d="
  M 207.22 84.54
  Q 207.33 87.31 205.95 89.39
  Q 205.64 89.86 206.13 90.13
  C 207.31 90.80 208.48 90.11 208.80 88.81
  Q 209.40 86.38 208.69 83.83
  Q 208.57 83.36 208.15 83.62
  L 207.20 84.21"
/>
<path stroke="#888884" vector-effect="non-scaling-stroke" d="
  M 113.94 87.00
  Q 112.92 87.70 113.35 88.91
  Q 113.70 89.90 115.25 90.05"
/>
<path stroke="#888884" vector-effect="non-scaling-stroke" d="
  M 115.68 89.86
  Q 116.02 88.66 115.83 87.28"
/>
<path stroke="#888884" vector-effect="non-scaling-stroke" d="
  M 185.53 89.93
  L 185.74 86.05"
/>
<path stroke="#888884" vector-effect="non-scaling-stroke" d="
  M 184.11 86.11
  Q 183.40 87.19 183.46 88.54
  Q 183.49 89.41 184.03 89.74
  Q 184.61 90.09 185.53 89.93"
/>
<path stroke="#d3c2a0" vector-effect="non-scaling-stroke" d="
  M 113.2661 27.0500
  A 2.66 0.86 90.3 0 0 114.1400 24.3945
  A 2.66 0.86 90.3 0 0 113.2939 21.7300
  A 2.66 0.86 90.3 0 0 112.4200 24.3855
  A 2.66 0.86 90.3 0 0 113.2661 27.0500"
/>
<path stroke="#d3c2a0" vector-effect="non-scaling-stroke" d="
  M 136.1200 27.1000
  A 2.72 0.93 90.0 0 0 137.0500 24.3800
  A 2.72 0.93 90.0 0 0 136.1200 21.6600
  A 2.72 0.93 90.0 0 0 135.1900 24.3800
  A 2.72 0.93 90.0 0 0 136.1200 27.1000"
/>
<path stroke="#d3c2a0" vector-effect="non-scaling-stroke" d="
  M 105.87 40.45
  A 0.95 0.95 0.0 0 0 104.92 39.50
  A 0.95 0.95 0.0 0 0 103.97 40.45
  A 0.95 0.95 0.0 0 0 104.92 41.40
  A 0.95 0.95 0.0 0 0 105.87 40.45"
/>
<path stroke="#d3c2a0" vector-effect="non-scaling-stroke" d="
  M 145.38 40.41
  A 0.95 0.95 0.0 0 0 144.43 39.46
  A 0.95 0.95 0.0 0 0 143.48 40.41
  A 0.95 0.95 0.0 0 0 144.43 41.36
  A 0.95 0.95 0.0 0 0 145.38 40.41"
/>
<path stroke="#d3c2a0" vector-effect="non-scaling-stroke" d="
  M 145.41 55.19
  A 0.95 0.95 0.0 0 0 144.46 54.24
  A 0.95 0.95 0.0 0 0 143.51 55.19
  A 0.95 0.95 0.0 0 0 144.46 56.14
  A 0.95 0.95 0.0 0 0 145.41 55.19"
/>
<path stroke="#d3c2a0" vector-effect="non-scaling-stroke" d="
  M 105.86 55.21
  A 0.94 0.94 0.0 0 0 104.92 54.27
  A 0.94 0.94 0.0 0 0 103.98 55.21
  A 0.94 0.94 0.0 0 0 104.92 56.15
  A 0.94 0.94 0.0 0 0 105.86 55.21"
/>
<path stroke="#92928e" vector-effect="non-scaling-stroke" d="
  M 53.14 90.14
  Q 56.82 90.27 56.90 87.14
  C 56.95 85.16 57.12 83.87 55.78 82.54
  A 1.52 1.52 0.0 0 0 53.23 83.33
  L 51.89 90.14
  Q 51.81 90.56 52.23 90.63
  Q 52.43 90.67 52.52 90.50
  Q 52.72 90.12 53.14 90.14"
/>
<path stroke="#888884" vector-effect="non-scaling-stroke" d="
  M 89.8092 89.9181
  A 4.62 1.80 107.0 0 0 92.8813 86.0263
  A 4.62 1.80 107.0 0 0 92.5108 81.0819
  A 4.62 1.80 107.0 0 0 89.4387 84.9737
  A 4.62 1.80 107.0 0 0 89.8092 89.9181"
/>
<path stroke="#888884" vector-effect="non-scaling-stroke" d="
  M 120.37 92.55
  Q 119.19 93.50 118.83 94.64
  A 1.05 1.05 0.0 0 0 120.71 95.53
  Q 121.89 93.75 121.26 91.68
  Q 121.18 91.42 121.04 91.65
  L 120.76 92.11
  Q 120.60 92.36 120.37 92.55"
/>
<path stroke="#888884" vector-effect="non-scaling-stroke" d="
  M 153.4921 85.6244
  A 2.62 1.18 120.2 0 0 155.8298 83.9536
  A 2.62 1.18 120.2 0 0 156.1279 81.0956
  A 2.62 1.18 120.2 0 0 153.7902 82.7664
  A 2.62 1.18 120.2 0 0 153.4921 85.6244"
/>
<path stroke="#92928e" vector-effect="non-scaling-stroke" d="
  M 199.1177 85.7120
  A 2.68 1.16 120.8 0 0 201.4864 84.0040
  A 2.68 1.16 120.8 0 0 201.8623 81.1080
  A 2.68 1.16 120.8 0 0 199.4936 82.8160
  A 2.68 1.16 120.8 0 0 199.1177 85.7120"
/>
</g>
<path fill="#25241d" d="
  M 162.56 59.31
  L 155.95 59.10
  L 155.89 51.04
  Q 156.65 47.74 155.92 44.50
  L 155.97 35.99
  L 156.14 29.33
  L 134.21 16.87
  Q 133.71 16.59 133.71 17.16
  L 133.71 29.44
  L 133.64 35.83
  L 133.68 44.60
  L 133.69 51.04
  L 133.69 59.08
  L 127.11 59.07
  L 127.09 4.28
  A 0.58 0.58 0.0 0 1 127.96 3.78
  L 168.37 27.49
  Q 169.24 28.00 168.23 28.00
  L 163.04 28.00
  Q 162.54 28.00 162.54 28.50
  L 162.56 59.31
  Z"
/>
<path fill="#25241d" d="
  M 122.15 59.39
  L 115.67 59.10
  L 115.58 51.10
  L 115.67 44.48
  L 115.66 36.18
  L 115.67 29.41
  L 115.72 17.17
  A 0.40 0.39 -14.8 0 0 115.13 16.83
  L 93.25 29.39
  L 93.31 35.98
  L 93.36 44.58
  L 93.35 51.14
  L 93.30 59.09
  L 86.84 59.20
  L 86.84 28.56
  Q 86.83 27.99 86.27 27.99
  L 81.26 27.99
  A 0.31 0.30 29.6 0 1 81.10 27.42
  L 120.46 4.34
  Q 122.14 3.35 122.14 5.30
  L 122.15 59.39
  Z"
/>
<path fill="#fffffe" d="
  M 115.67 29.41
  L 93.25 29.39
  L 115.13 16.83
  A 0.40 0.39 -14.8 0 1 115.72 17.17
  L 115.67 29.41
  Z
  M 113.2661 27.0500
  A 2.66 0.86 90.3 0 0 114.1400 24.3945
  A 2.66 0.86 90.3 0 0 113.2939 21.7300
  A 2.66 0.86 90.3 0 0 112.4200 24.3855
  A 2.66 0.86 90.3 0 0 113.2661 27.0500
  Z"
/>
<path fill="#fffffe" d="
  M 156.14 29.33
  L 133.71 29.44
  L 133.71 17.16
  Q 133.71 16.59 134.21 16.87
  L 156.14 29.33
  Z
  M 136.1200 27.1000
  A 2.72 0.93 90.0 0 0 137.0500 24.3800
  A 2.72 0.93 90.0 0 0 136.1200 21.6600
  A 2.72 0.93 90.0 0 0 135.1900 24.3800
  A 2.72 0.93 90.0 0 0 136.1200 27.1000
  Z"
/>
<ellipse fill="#a68541" cx="0.00" cy="0.00" transform="translate(136.12,24.38) rotate(90.0)" rx="2.72" ry="0.93"/>
<ellipse fill="#a68541" cx="0.00" cy="0.00" transform="translate(113.28,24.39) rotate(90.3)" rx="2.66" ry="0.86"/>
<path fill="#a68541" d="
  M 115.67 29.41
  L 115.66 36.18
  L 93.31 35.98
  L 93.25 29.39
  L 115.67 29.41
  Z"
/>
<path fill="#a68541" d="
  M 156.14 29.33
  L 155.97 35.99
  L 133.64 35.83
  L 133.71 29.44
  L 156.14 29.33
  Z"
/>
<path fill="#fffffe" d="
  M 115.66 36.18
  L 115.67 44.48
  L 93.36 44.58
  L 93.31 35.98
  L 115.66 36.18
  Z
  M 105.87 40.45
  A 0.95 0.95 0.0 0 0 104.92 39.50
  A 0.95 0.95 0.0 0 0 103.97 40.45
  A 0.95 0.95 0.0 0 0 104.92 41.40
  A 0.95 0.95 0.0 0 0 105.87 40.45
  Z"
/>
<path fill="#fffffe" d="
  M 133.64 35.83
  L 155.97 35.99
  L 155.92 44.50
  L 133.68 44.60
  L 133.64 35.83
  Z
  M 145.38 40.41
  A 0.95 0.95 0.0 0 0 144.43 39.46
  A 0.95 0.95 0.0 0 0 143.48 40.41
  A 0.95 0.95 0.0 0 0 144.43 41.36
  A 0.95 0.95 0.0 0 0 145.38 40.41
  Z"
/>
<circle fill="#a68541" cx="104.92" cy="40.45" r="0.95"/>
<circle fill="#a68541" cx="144.43" cy="40.41" r="0.95"/>
<path fill="#a68541" d="
  M 115.67 44.48
  L 115.58 51.10
  L 93.35 51.14
  L 93.36 44.58
  L 115.67 44.48
  Z"
/>
<path fill="#a68541" d="
  M 155.92 44.50
  Q 156.65 47.74 155.89 51.04
  L 133.69 51.04
  L 133.68 44.60
  L 155.92 44.50
  Z"
/>
<path fill="#fffffe" d="
  M 155.89 51.04
  L 155.95 59.10
  L 133.69 59.08
  L 133.69 51.04
  L 155.89 51.04
  Z
  M 145.41 55.19
  A 0.95 0.95 0.0 0 0 144.46 54.24
  A 0.95 0.95 0.0 0 0 143.51 55.19
  A 0.95 0.95 0.0 0 0 144.46 56.14
  A 0.95 0.95 0.0 0 0 145.41 55.19
  Z"
/>
<path fill="#fffffe" d="
  M 115.58 51.10
  L 115.67 59.10
  L 93.30 59.09
  L 93.35 51.14
  L 115.58 51.10
  Z
  M 105.86 55.21
  A 0.94 0.94 0.0 0 0 104.92 54.27
  A 0.94 0.94 0.0 0 0 103.98 55.21
  A 0.94 0.94 0.0 0 0 104.92 56.15
  A 0.94 0.94 0.0 0 0 105.86 55.21
  Z"
/>
<circle fill="#a68541" cx="104.92" cy="55.21" r="0.94"/>
<circle fill="#a68541" cx="144.46" cy="55.19" r="0.95"/>
<path fill="#a68541" d="
  M 115.67 59.10
  L 122.15 59.39
  L 122.00 63.62
  A 0.65 0.65 0.0 0 1 121.35 64.25
  L 80.59 64.25
  Q 79.93 64.25 79.91 63.59
  L 79.82 59.96
  A 0.63 0.63 0.0 0 1 80.44 59.32
  L 86.84 59.20
  L 93.30 59.09
  L 115.67 59.10
  Z"
/>
<path fill="#a68541" d="
  M 127.11 59.07
  L 133.69 59.08
  L 155.95 59.10
  L 162.56 59.31
  L 168.82 59.31
  Q 169.32 59.31 169.33 59.81
  L 169.37 63.69
  Q 169.38 64.25 168.82 64.25
  L 127.77 64.25
  Q 127.29 64.25 127.27 63.77
  L 127.11 59.07
  Z"
/>
<path fill="#25241d" d="
  M 5.08 82.00
  L 6.43 76.11
  Q 6.60 75.38 5.93 75.72
  Q 2.61 77.44 3.12 82.09
  Q 1.19 82.34 0.94 80.42
  C 0.40 76.37 6.49 73.85 9.67 73.93
  Q 10.22 73.94 10.11 74.48
  L 6.53 91.29
  Q 6.44 91.75 5.96 91.76
  L 3.75 91.79
  Q 3.19 91.80 3.30 91.25
  L 5.08 82.00
  Z"
/>
<path fill="#25241d" d="
  M 34.59 85.92
  Q 34.99 86.09 35.36 86.85
  L 33.79 91.21
  Q 33.59 91.76 33.00 91.76
  L 30.59 91.77
  A 0.45 0.45 0.0 0 1 30.14 91.33
  L 29.79 76.04
  A 0.56 0.56 0.0 0 0 28.95 75.57
  Q 25.40 77.59 26.07 81.76
  A 0.44 0.43 -85.3 0 1 25.50 82.25
  Q 23.65 81.64 24.00 79.65
  A 0.54 0.54 0.0 0 0 23.46 79.01
  L 21.52 79.03
  A 0.47 0.47 0.0 0 1 21.10 78.34
  L 21.74 77.09
  A 1.58 1.57 -85.2 0 0 19.86 74.86
  C 15.48 76.28 14.72 85.24 15.43 88.87
  Q 15.52 89.37 15.99 89.58
  C 18.99 90.91 20.04 89.72 22.54 88.20
  A 0.33 0.33 0.0 0 1 22.99 88.65
  C 20.35 92.89 11.92 94.52 11.35 87.52
  C 10.92 82.23 13.16 74.44 19.22 73.85
  Q 23.53 73.43 23.51 77.45
  A 0.56 0.56 0.0 0 0 24.50 77.80
  Q 27.62 73.92 32.65 73.90
  A 0.57 0.57 0.0 0 1 33.22 74.46
  L 33.30 85.32
  Q 33.30 86.00 33.98 86.04
  Q 34.25 86.05 34.59 85.92
  Z"
/>
<path fill="#25241d" d="
  M 51.16 77.02
  Q 52.56 76.19 54.19 76.32
  Q 54.76 76.37 54.64 76.93
  L 53.81 81.00
  Q 53.69 81.56 54.25 81.43
  C 59.09 80.36 58.83 73.14 51.56 75.31
  Q 51.70 74.81 51.57 74.40
  C 54.83 73.36 60.80 73.77 59.58 78.70
  Q 59.46 79.20 59.15 79.62
  L 58.18 80.90
  Q 57.79 81.42 58.32 81.81
  C 63.38 85.45 57.24 95.49 52.88 91.46
  Q 52.60 91.20 52.22 91.27
  L 48.90 91.91
  Q 48.10 92.07 48.26 91.27
  L 51.16 77.02
  Z
  M 53.14 90.14
  Q 56.82 90.27 56.90 87.14
  C 56.95 85.16 57.12 83.87 55.78 82.54
  A 1.52 1.52 0.0 0 0 53.23 83.33
  L 51.89 90.14
  Q 51.81 90.56 52.23 90.63
  Q 52.43 90.67 52.52 90.50
  Q 52.72 90.12 53.14 90.14
  Z"
/>
<path fill="#101009" d="
  M 140.05 90.85
  C 143.68 91.69 144.51 87.04 142.39 84.61
  C 140.09 81.99 136.53 78.24 139.60 75.34
  C 142.35 72.74 149.95 73.62 147.80 78.25
  Q 147.10 79.75 145.43 79.07
  Q 144.82 78.81 145.09 78.21
  Q 145.22 77.92 145.52 77.76
  A 1.77 1.53 30.3 0 0 144.50 74.76
  Q 142.55 74.56 141.83 76.34
  C 141.23 77.81 142.49 79.61 143.74 80.77
  C 154.59 90.98 136.00 96.56 135.65 88.26
  C 135.53 85.59 138.23 83.15 140.52 85.21
  Q 141.20 85.82 140.30 85.95
  L 139.77 86.02
  Q 139.23 86.09 138.87 86.49
  C 137.50 88.03 137.85 90.35 140.05 90.85
  Z"
/>
<path fill="#101009" d="
  M 35.36 86.85
  Q 34.99 86.09 34.59 85.92
  Q 36.58 80.23 38.53 74.50
  Q 38.82 73.64 39.65 74.11
  Q 40.05 74.33 39.89 74.76
  L 35.36 86.85
  Z"
/>
<path fill="#25241d" d="
  M 225.87 91.48
  Q 229.94 94.58 234.95 94.81
  Q 235.35 94.83 235.32 95.24
  C 235.02 98.36 232.61 98.44 230.42 96.96
  C 227.73 95.15 225.87 93.01 222.36 92.35
  Q 221.87 92.26 221.98 91.77
  L 225.08 77.53
  A 0.95 0.94 72.3 0 0 223.46 76.69
  Q 221.43 78.92 222.00 81.99
  A 0.57 0.56 -78.8 0 1 221.14 82.57
  C 219.28 81.34 219.44 79.56 220.65 77.90
  Q 223.46 74.05 228.48 74.12
  Q 229.02 74.13 228.90 74.66
  L 225.50 90.47
  Q 225.37 91.09 225.87 91.48
  Z"
/>
<path fill="#101009" d="
  M 51.57 74.40
  Q 51.70 74.81 51.56 75.31
  Q 49.82 76.10 50.23 76.90
  C 47.90 77.10 48.06 79.94 48.02 81.72
  Q 48.01 82.19 47.54 82.14
  Q 45.80 81.97 45.88 80.46
  Q 46.12 75.83 51.57 74.40
  Z"
/>
<path fill="#fffffe" d="
  M 51.16 77.02
  L 50.23 76.90
  Q 49.82 76.10 51.56 75.31
  C 58.83 73.14 59.09 80.36 54.25 81.43
  Q 53.69 81.56 53.81 81.00
  L 54.64 76.93
  Q 54.76 76.37 54.19 76.32
  Q 52.56 76.19 51.16 77.02
  Z"
/>
<circle fill="#101009" cx="78.16" cy="76.54" r="1.80"/>
<circle fill="#101009" cx="102.32" cy="76.55" r="1.80"/>
<circle fill="#101009" cx="184.20" cy="76.54" r="1.81"/>
<path fill="#101009" d="
  M 83.87 86.01
  Q 83.16 87.11 83.24 88.54
  Q 83.28 89.40 83.83 89.74
  Q 84.45 90.13 85.35 89.86
  C 83.11 93.17 79.03 92.12 79.84 88.48
  Q 81.20 82.31 82.41 76.11
  Q 82.51 75.61 83.02 75.52
  L 85.47 75.09
  Q 86.09 74.99 85.97 75.61
  L 83.87 86.01
  Z"
/>
<path fill="#101009" d="
  M 85.35 89.86
  Q 85.91 88.26 85.59 86.11
  C 87.23 82.39 88.69 78.58 93.66 80.26
  Q 94.02 80.38 94.10 80.01
  L 94.88 76.15
  A 0.73 0.71 -0.8 0 1 95.44 75.59
  L 97.65 75.13
  A 0.50 0.49 1.1 0 1 98.23 75.73
  Q 96.01 85.41 95.54 88.75
  Q 95.37 89.91 96.71 89.79
  Q 97.34 89.73 97.15 90.33
  C 96.49 92.41 93.82 92.38 92.47 90.71
  A 0.58 0.58 0.0 0 0 91.64 90.63
  Q 88.11 93.61 85.35 89.86
  Z
  M 89.8092 89.9181
  A 4.62 1.80 107.0 0 0 92.8813 86.0263
  A 4.62 1.80 107.0 0 0 92.5108 81.0819
  A 4.62 1.80 107.0 0 0 89.4387 84.9737
  A 4.62 1.80 107.0 0 0 89.8092 89.9181
  Z"
/>
<path fill="#25241d" d="
  M 245.47 79.97
  L 246.24 76.00
  A 0.63 0.60 -87.8 0 1 246.75 75.51
  L 249.17 75.20
  Q 249.71 75.13 249.60 75.65
  L 246.82 88.92
  Q 246.69 89.49 247.26 89.66
  L 247.82 89.83
  A 0.79 0.79 0.0 0 1 248.03 91.24
  Q 245.56 92.89 243.87 90.77
  Q 243.53 90.34 243.12 90.69
  Q 240.44 92.90 238.36 91.31
  C 235.99 89.50 237.04 86.15 238.03 83.79
  Q 240.15 78.76 245.10 80.20
  Q 245.41 80.29 245.47 79.97
  Z
  M 243.48 89.71
  L 245.22 82.18
  A 0.66 0.66 0.0 0 0 244.72 81.39
  L 244.08 81.24
  A 3.34 2.54 -77.0 0 0 240.85 83.93
  L 240.32 86.23
  A 3.34 2.54 -77.0 0 0 242.05 90.05
  L 242.69 90.20
  A 0.66 0.66 0.0 0 0 243.48 89.71
  Z"
/>
<path fill="#fffffe" d="
  M 5.08 82.00
  Q 3.61 81.87 3.12 82.09
  Q 2.61 77.44 5.93 75.72
  Q 6.60 75.38 6.43 76.11
  L 5.08 82.00
  Z"
/>
<path fill="#25241d" d="
  M 234.37 81.29
  Q 233.66 84.65 233.04 88.06
  Q 232.89 88.91 233.16 89.41
  Q 233.37 89.80 233.83 90.09
  A 0.53 0.53 0.0 0 1 233.95 90.88
  Q 232.78 92.27 230.97 91.82
  A 1.99 1.99 0.0 0 1 229.50 89.51
  L 231.04 81.57
  A 0.64 0.62 -62.0 0 0 230.88 81.02
  L 230.71 80.84
  Q 230.45 80.57 230.73 80.33
  Q 232.06 79.17 231.88 77.28
  A 0.69 0.69 0.0 0 1 232.48 76.53
  L 235.25 76.18
  A 0.36 0.36 0.0 0 1 235.58 76.76
  Q 234.01 78.78 235.74 80.22
  A 0.35 0.35 0.0 0 1 235.49 80.84
  L 235.01 80.80
  A 0.62 0.62 0.0 0 0 234.37 81.29
  Z"
/>
<path fill="#25241d" d="
  M 207.22 84.54
  Q 207.33 87.31 205.95 89.39
  Q 205.64 89.86 206.13 90.13
  C 207.31 90.80 208.48 90.11 208.80 88.81
  Q 209.40 86.38 208.69 83.83
  Q 208.57 83.36 208.15 83.62
  L 207.20 84.21
  L 208.21 80.36
  Q 208.36 79.77 208.96 79.67
  L 211.30 79.27
  Q 211.94 79.16 211.96 79.81
  C 212.10 83.90 214.41 91.66 208.00 92.03
  Q 205.83 92.15 204.65 90.56
  A 2.55 2.55 0.0 0 1 205.00 87.14
  Q 206.11 86.15 206.50 84.66
  Q 206.57 84.39 206.86 84.38
  Q 207.16 84.37 207.22 84.54
  Z"
/>
<path fill="#101009" d="
  M 177.06 81.53
  L 176.54 81.53
  A 0.88 0.88 0.0 0 1 176.26 79.81
  L 176.92 79.59
  A 1.52 1.51 -7.0 0 1 178.91 81.14
  C 178.55 85.68 176.79 93.07 170.83 91.78
  A 2.34 2.34 0.0 0 1 169.03 89.02
  L 170.81 80.49
  Q 170.93 79.92 171.52 79.92
  L 173.49 79.95
  Q 174.02 79.96 173.92 80.48
  L 172.26 88.99
  A 0.80 0.80 0.0 0 0 173.25 89.92
  L 174.34 89.64
  Q 174.79 89.52 175.07 89.14
  Q 177.31 86.03 177.66 82.18
  Q 177.71 81.53 177.06 81.53
  Z"
/>
<path fill="#101009" d="
  M 113.94 87.00
  Q 112.92 87.70 113.35 88.91
  Q 113.70 89.90 115.25 90.05
  C 113.54 93.54 109.08 92.06 110.35 87.94
  Q 111.15 85.36 111.24 82.66
  Q 111.26 82.08 110.67 82.02
  C 107.70 81.76 107.21 89.24 106.85 91.33
  Q 106.73 92.01 106.05 91.90
  L 102.54 91.36
  A 0.45 0.43 -55.5 0 0 102.22 91.43
  C 99.08 93.44 98.01 90.36 98.41 87.80
  Q 98.98 84.12 99.87 80.50
  Q 99.99 79.99 100.52 79.99
  L 102.68 79.99
  Q 103.26 79.99 103.14 80.57
  L 101.32 89.07
  A 0.57 0.57 0.0 0 0 101.83 89.76
  L 103.06 89.85
  Q 103.81 89.91 103.97 89.17
  L 105.83 80.41
  Q 105.96 79.77 106.61 79.86
  L 109.57 80.24
  Q 110.05 80.30 110.50 80.12
  Q 112.53 79.31 114.13 80.83
  A 1.24 1.23 -65.0 0 1 114.51 81.89
  L 113.94 87.00
  Z"
/>
<path fill="#101009" d="
  M 115.68 89.86
  Q 116.02 88.66 115.83 87.28
  Q 117.17 79.39 122.81 79.98
  C 124.25 80.13 125.63 79.78 127.03 80.03
  Q 127.56 80.13 127.45 80.65
  Q 126.06 87.26 124.58 93.82
  C 122.92 101.18 114.36 97.35 118.91 92.82
  Q 119.38 92.34 118.76 92.10
  Q 116.81 91.31 115.68 89.86
  Z
  M 120.1420 90.0610
  A 4.76 1.87 106.2 0 0 123.2657 86.0117
  A 4.76 1.87 106.2 0 0 122.7980 80.9190
  A 4.76 1.87 106.2 0 0 119.6743 84.9683
  A 4.76 1.87 106.2 0 0 120.1420 90.0610
  Z
  M 120.37 92.55
  Q 119.19 93.50 118.83 94.64
  A 1.05 1.05 0.0 0 0 120.71 95.53
  Q 121.89 93.75 121.26 91.68
  Q 121.18 91.42 121.04 91.65
  L 120.76 92.11
  Q 120.60 92.36 120.37 92.55
  Z"
/>
<path fill="#101009" d="
  M 153.74 89.98
  Q 155.13 89.98 156.28 89.31
  A 0.34 0.34 0.0 0 1 156.74 89.78
  Q 154.99 92.66 151.90 91.88
  C 148.46 91.01 149.18 88.33 149.55 85.74
  Q 150.34 80.22 155.69 79.61
  Q 157.33 79.43 157.97 80.68
  C 159.34 83.39 155.83 86.69 153.59 86.91
  A 1.54 1.54 0.0 0 0 153.74 89.98
  Z
  M 153.4921 85.6244
  A 2.62 1.18 120.2 0 0 155.8298 83.9536
  A 2.62 1.18 120.2 0 0 156.1279 81.0956
  A 2.62 1.18 120.2 0 0 153.7902 82.7664
  A 2.62 1.18 120.2 0 0 153.4921 85.6244
  Z"
/>
<path fill="#101009" d="
  M 185.53 89.93
  L 185.74 86.05
  C 187.30 82.42 188.66 78.92 193.48 79.85
  A 1.75 1.75 0.0 0 1 194.26 82.92
  L 193.61 83.46
  Q 193.01 83.95 193.00 83.18
  L 192.97 81.53
  A 0.80 0.80 0.0 0 0 191.55 81.03
  Q 188.43 84.77 189.33 89.58
  A 0.63 0.63 0.0 0 0 190.06 90.08
  L 192.47 89.67
  A 0.39 0.38 -73.7 0 1 192.82 90.31
  Q 189.46 93.97 185.53 89.93
  Z"
/>
<path fill="#25241d" d="
  M 199.40 89.89
  Q 200.78 90.01 201.97 89.28
  Q 202.61 88.89 202.41 89.62
  C 201.47 92.91 195.01 93.05 194.95 88.33
  C 194.90 83.98 198.42 77.32 203.66 80.53
  A 0.82 0.81 -73.1 0 1 204.05 81.26
  Q 203.87 85.97 199.25 86.83
  A 1.55 1.55 0.0 0 0 199.40 89.89
  Z
  M 199.1177 85.7120
  A 2.68 1.16 120.8 0 0 201.4864 84.0040
  A 2.68 1.16 120.8 0 0 201.8623 81.1080
  A 2.68 1.16 120.8 0 0 199.4936 82.8160
  A 2.68 1.16 120.8 0 0 199.1177 85.7120
  Z"
/>
<path fill="#101009" d="
  M 67.44 90.48
  C 65.73 92.62 61.32 92.69 61.97 88.90
  Q 62.68 84.70 63.61 80.54
  Q 63.73 79.97 64.32 79.97
  L 66.36 79.97
  Q 66.99 79.97 66.86 80.59
  L 65.08 88.89
  A 0.85 0.85 0.0 0 0 66.14 89.89
  Q 67.62 89.47 68.01 87.75
  Q 68.82 84.12 69.63 80.49
  Q 69.74 79.98 70.26 79.98
  L 72.49 79.99
  Q 72.98 79.99 72.88 80.47
  L 71.13 88.85
  Q 71.01 89.43 71.56 89.63
  L 72.51 89.98
  A 0.53 0.53 0.0 0 1 72.70 90.85
  Q 70.13 93.37 68.17 90.51
  Q 67.83 90.00 67.44 90.48
  Z"
/>
<path fill="#101009" d="
  M 77.83 89.82
  L 78.75 90.03
  A 0.41 0.41 0.0 0 1 78.97 90.70
  Q 77.77 92.11 75.94 91.95
  A 2.29 2.28 8.2 0 1 73.89 89.22
  L 75.67 80.47
  Q 75.77 79.98 76.27 79.97
  L 78.40 79.95
  Q 79.12 79.94 78.97 80.64
  L 77.21 88.84
  A 0.82 0.82 0.0 0 0 77.83 89.82
  Z"
/>
<path fill="#101009" d="
  M 163.55 82.80
  L 161.83 91.25
  Q 161.73 91.74 161.23 91.75
  L 158.96 91.80
  Q 158.35 91.81 158.48 91.21
  L 160.79 80.58
  Q 160.88 80.13 161.34 80.01
  Q 162.92 79.60 164.20 80.40
  Q 164.59 80.64 165.03 80.49
  L 166.67 79.95
  A 1.66 1.66 0.0 0 1 167.99 82.98
  Q 166.56 83.78 166.11 82.59
  A 1.34 1.34 0.0 0 0 163.55 82.80
  Z"
/>
<path fill="#101009" d="
  M 184.11 86.11
  Q 183.40 87.19 183.46 88.54
  Q 183.49 89.41 184.03 89.74
  Q 184.61 90.09 185.53 89.93
  C 183.62 92.96 179.20 92.41 180.08 88.51
  Q 180.97 84.54 181.78 80.55
  A 0.75 0.74 5.3 0 1 182.50 79.96
  L 184.68 79.94
  A 0.46 0.46 0.0 0 1 185.13 80.48
  L 184.11 86.11
  Z"
/>
<ellipse fill="#fffffe" cx="0.00" cy="0.00" transform="translate(154.81,83.36) rotate(120.2)" rx="2.62" ry="1.18"/>
<ellipse fill="#fffffe" cx="0.00" cy="0.00" transform="translate(200.49,83.41) rotate(120.8)" rx="2.68" ry="1.16"/>
<ellipse fill="#fffffe" cx="0.00" cy="0.00" transform="translate(91.16,85.50) rotate(107.0)" rx="4.62" ry="1.80"/>
<path fill="#fffffe" d="
  M 52.52 90.50
  Q 52.43 90.67 52.23 90.63
  Q 51.81 90.56 51.89 90.14
  L 53.23 83.33
  A 1.52 1.52 0.0 0 1 55.78 82.54
  C 57.12 83.87 56.95 85.16 56.90 87.14
  Q 56.82 90.27 53.14 90.14
  Q 52.72 90.12 52.52 90.50
  Z"
/>
<path fill="#fffffe" d="
  M 207.22 84.54
  Q 208.48 84.20 207.20 84.21
  L 208.15 83.62
  Q 208.57 83.36 208.69 83.83
  Q 209.40 86.38 208.80 88.81
  C 208.48 90.11 207.31 90.80 206.13 90.13
  Q 205.64 89.86 205.95 89.39
  Q 207.33 87.31 207.22 84.54
  Z"
/>
<path fill="#fffffe" d="
  M 83.87 86.01
  L 85.59 86.11
  Q 85.91 88.26 85.35 89.86
  Q 84.45 90.13 83.83 89.74
  Q 83.28 89.40 83.24 88.54
  Q 83.16 87.11 83.87 86.01
  Z"
/>
<path fill="#fffffe" d="
  M 184.11 86.11
  L 185.74 86.05
  L 185.53 89.93
  Q 184.61 90.09 184.03 89.74
  Q 183.49 89.41 183.46 88.54
  Q 183.40 87.19 184.11 86.11
  Z"
/>
<path fill="#fffffe" d="
  M 113.94 87.00
  Q 115.12 86.88 115.83 87.28
  Q 116.02 88.66 115.68 89.86
  Q 115.47 89.95 115.25 90.05
  Q 113.70 89.90 113.35 88.91
  Q 112.92 87.70 113.94 87.00
  Z"
/>
<path fill="#fffffe" d="
  M 120.76 92.11
  L 121.04 91.65
  Q 121.18 91.42 121.26 91.68
  Q 121.89 93.75 120.71 95.53
  A 1.05 1.05 0.0 0 1 118.83 94.64
  Q 119.19 93.50 120.37 92.55
  Q 120.60 92.36 120.76 92.11
  Z"
/>
</svg>
